<svg width="1200" height="800" viewBox="0 0 1200 800" fill="none" xmlns="http://www.w3.org/2000/svg">
  <defs>
    <linearGradient id="g" x1="0" y1="0" x2="1" y2="1">
      <stop stop-color="#0F172A"/>
      <stop offset="0.55" stop-color="#1E293B"/>
      <stop offset="1" stop-color="#475569"/>
    </linearGradient>
  </defs>
  <rect width="1200" height="800" rx="42" fill="url(#g)"/>
  <circle cx="190" cy="160" r="92" fill="rgba(255,255,255,0.08)"/>
  <circle cx="1010" cy="120" r="130" fill="rgba(225,29,72,0.12)"/>
  <circle cx="960" cy="640" r="180" fill="rgba(249,115,22,0.10)"/>
  <rect x="180" y="220" width="840" height="320" rx="32" fill="rgba(255,255,255,0.08)" stroke="rgba(255,255,255,0.14)"/>
  <path d="M520 350C520 317.5 546.5 291 579 291H621C653.5 291 680 317.5 680 350V392C680 424.5 653.5 451 621 451H579C546.5 451 520 424.5 520 392V350Z" fill="rgba(255,255,255,0.16)"/>
  <path d="M557 366L599 324L641 366L599 408L557 366Z" fill="#FFFFFF" fill-opacity="0.85"/>
  <text x="600" y="610" text-anchor="middle" fill="#E2E8F0" font-family="Inter, Arial, sans-serif" font-size="34" font-weight="700">Event image unavailable</text>
</svg>
